<?xml version="1.0" encoding="UTF-8"?>
<svg version="1.1" xmlns="http://www.w3.org/2000/svg" width="32" height="32">
<path d="M0 0 C3.1875 -0.1875 3.1875 -0.1875 6 0 C6.1875 2.8125 6.1875 2.8125 6 6 C5.5153125 6.4021875 5.030625 6.804375 4.53125 7.21875 C2.14205542 9.99801717 2.42799028 13.18130489 2.3125 16.6875 C2.209375 19.100625 2.10625 21.51375 2 24 C-4.6 24 -11.2 24 -18 24 C-18 17.4 -18 10.8 -18 4 C-10.6875 3.6875 -10.6875 3.6875 -8.3972168 3.61206055 C-4.47828217 3.43913964 -4.47828217 3.43913964 -1.21875 1.46875 C-0.8165625 0.9840625 -0.414375 0.499375 0 0 Z M-16 6 C-16 11.28 -16 16.56 -16 22 C-10.72 22 -5.44 22 0 22 C0 18.7 0 15.4 0 12 C-1.32 12.99 -2.64 13.98 -4 15 C-6.31347872 15.73260159 -8.645752 16.411438 -11 17 C-10.54658132 15.72740489 -10.08704773 14.45698757 -9.625 13.1875 C-9.36976562 12.47980469 -9.11453125 11.77210937 -8.8515625 11.04296875 C-8 9 -8 9 -6 6 C-9.3 6 -12.6 6 -16 6 Z " fill="#000000" transform="translate(22,4)"/>
</svg>
