<?xml version="1.0" encoding="UTF-8"?>
<svg version="1.1" xmlns="http://www.w3.org/2000/svg" width="396" height="139">
<path d="M0 0 C14.51413192 10.26097631 25.90462903 25.75327419 29.59765625 43.421875 C32.13798206 66.0135104 28.94824728 85.4952504 14.6875 103.8125 C4.15646428 116.00447089 -11.67308059 126.18787184 -28 128 C-48.75242705 129.25772285 -68.25867653 126.81606755 -84.4375 112.625 C-85.97907944 111.10407825 -87.50055091 109.56247322 -89 108 C-89.76699219 107.26394531 -90.53398437 106.52789062 -91.32421875 105.76953125 C-104.9588114 91.94974889 -109.52762918 74.49789115 -109.42016602 55.57226562 C-108.95817056 37.44669307 -101.79027752 21.79027752 -89 9 C-88.45988281 8.37738281 -87.91976563 7.75476563 -87.36328125 7.11328125 C-65.94309013 -16.89675666 -25.29880324 -16.30725407 0 0 Z M-41 -5 C-41 -2.69 -41 -0.38 -41 2 C-43.64 2 -46.28 2 -49 2 C-49.99 0.02 -50.98 -1.96 -52 -4 C-52.99 -3.67 -53.98 -3.34 -55 -3 C-54.34414811 0.60992379 -54.34414811 0.60992379 -53 4 C-53.86109375 4.103125 -54.7221875 4.20625 -55.609375 4.3125 C-67.97623491 6.82006606 -78.64994035 16.08212099 -85.875 26.0625 C-86.94038083 27.69308287 -87.98433146 29.33799693 -89 31 C-89.39960938 31.64453125 -89.79921875 32.2890625 -90.2109375 32.953125 C-96.57218262 44.33640574 -97.62288863 58.36120792 -94.9375 70.9375 C-90.3946427 86.93258359 -81.39570428 99.52685274 -67 108 C-53.21115046 115.42780434 -38.13153335 117.41866614 -22.9296875 113.0234375 C-7.55519847 107.652616 5.00409204 97.25661942 12.23828125 82.46875 C13.28399169 80.00467593 14.17853465 77.54695537 15 75 C15.22558594 74.31808594 15.45117188 73.63617188 15.68359375 72.93359375 C19.53286299 58.94349107 17.33653834 43.31109363 10.3125 30.75 C1.38986742 17.08511182 -9.98960116 8.86551997 -25 3 C-24.34 1.35 -23.68 -0.3 -23 -2 C-24.32 -2.66 -25.64 -3.32 -27 -4 C-27.99 -2.02 -28.98 -0.04 -30 2 C-32.31 2 -34.62 2 -37 2 C-37 -0.31 -37 -2.62 -37 -5 C-38.32 -5 -39.64 -5 -41 -5 Z M-7 109 C-7 110.32 -7 111.64 -7 113 C-5.68 113 -4.36 113 -3 113 C-3 111.68 -3 110.36 -3 109 C-4.32 109 -5.64 109 -7 109 Z M-12 114 C-12 115.32 -12 116.64 -12 118 C-10.68 118 -9.36 118 -8 118 C-8 116.68 -8 115.36 -8 114 C-9.32 114 -10.64 114 -12 114 Z " fill="#7E6FE9" transform="translate(366,11)"/>
<path d="M0 0 C1.60562959 0.82766974 3.19347631 1.69153944 4.75390625 2.6015625 C12.75574913 6.89907267 21.56148817 8.61830208 30.3359375 10.67578125 C31.69672707 10.99887556 33.05740522 11.32243952 34.41796875 11.64648438 C37.72286706 12.43169071 41.02925689 13.21061474 44.3359375 13.98828125 C44.3359375 18.60828125 44.3359375 23.22828125 44.3359375 27.98828125 C40.01144908 29.42977739 36.30160287 30.46297686 31.87890625 31.2421875 C30.68458984 31.45681641 29.49027344 31.67144531 28.25976562 31.89257812 C26.4102832 32.21838867 26.4102832 32.21838867 24.5234375 32.55078125 C22.05796109 32.9860146 19.59307778 33.42462604 17.12890625 33.8671875 C15.49731567 34.15444702 15.49731567 34.15444702 13.83276367 34.44750977 C11.40665245 34.73709752 11.40665245 34.73709752 10.3359375 35.98828125 C9.96201676 38.64712549 9.64419483 41.29183761 9.36328125 43.9609375 C9.2322274 45.1574015 9.2322274 45.1574015 9.098526 46.3780365 C8.81938826 48.93519093 8.54635208 51.49295589 8.2734375 54.05078125 C8.08568683 55.78064246 7.897541 57.51046083 7.70898438 59.24023438 C7.24670877 63.48909909 6.78990563 67.73852123 6.3359375 71.98828125 C1.29873021 73.50528095 -2.95192802 74.25992078 -8.2265625 74.23828125 C-9.48597656 74.2434375 -10.74539063 74.24859375 -12.04296875 74.25390625 C-19.98070976 73.67163399 -19.98070976 73.67163399 -22.6640625 70.98828125 C-23.02553199 68.41395023 -23.33129467 65.85384706 -23.6015625 63.26953125 C-23.68656006 62.4964563 -23.77155762 61.72338135 -23.85913086 60.92687988 C-24.22410549 57.60607993 -24.5788238 54.28420144 -24.93457031 50.96240234 C-25.1950694 48.54354992 -25.46068055 46.12529689 -25.7265625 43.70703125 C-25.80575928 42.94974731 -25.88495605 42.19246338 -25.96655273 41.41223145 C-26.07456818 37.90124336 -26.07456818 37.90124336 -27.6640625 34.98828125 C-29.92729396 34.65344908 -32.19896754 34.37539447 -34.47265625 34.12109375 C-35.87311133 33.95627593 -37.27350009 33.79089378 -38.67382812 33.625 C-40.8897814 33.36684501 -43.1059433 33.11279893 -45.32348633 32.86865234 C-47.45815122 32.63159932 -49.59026285 32.37767595 -51.72265625 32.12109375 C-53.00454834 31.97559082 -54.28644043 31.83008789 -55.60717773 31.68017578 C-58.6640625 30.98828125 -58.6640625 30.98828125 -60.6640625 27.98828125 C-60.859375 24.8515625 -60.859375 24.8515625 -60.7890625 21.30078125 C-60.76199219 19.53154297 -60.76199219 19.53154297 -60.734375 17.7265625 C-60.71117187 16.82292969 -60.68796875 15.91929688 -60.6640625 14.98828125 C-52.80539348 11.73144898 -44.7174927 10.15409449 -36.39453125 8.50195312 C-29.6753171 7.05540119 -24.41762444 5.10879337 -18.68310547 1.28637695 C-13.26455156 -2.19735353 -5.92055146 -2.24842057 0 0 Z M-21.4765625 10.98828125 C-24.99805772 15.81776041 -25.35972618 20.18142195 -24.6640625 25.98828125 C-22.92852477 30.82703589 -19.91770885 34.15251702 -15.6640625 36.98828125 C-11.31356585 38.4384468 -7.21072065 38.49898232 -2.6640625 37.98828125 C2.32262757 35.49493622 5.83269224 31.99477176 8.3359375 26.98828125 C8.8597951 21.7325296 9.00099122 17.3430203 6.6484375 12.55078125 C1.78571587 7.13551125 1.78571587 7.13551125 -4.8359375 4.78515625 C-11.89568701 4.65679717 -16.65203862 5.47845568 -21.4765625 10.98828125 Z M-37.6640625 14.98828125 C-37.6640625 16.30828125 -37.6640625 17.62828125 -37.6640625 18.98828125 C-36.3440625 18.98828125 -35.0240625 18.98828125 -33.6640625 18.98828125 C-33.6640625 17.66828125 -33.6640625 16.34828125 -33.6640625 14.98828125 C-34.9840625 14.98828125 -36.3040625 14.98828125 -37.6640625 14.98828125 Z M17.3359375 14.98828125 C17.3359375 16.30828125 17.3359375 17.62828125 17.3359375 18.98828125 C18.6559375 18.98828125 19.9759375 18.98828125 21.3359375 18.98828125 C21.3359375 17.66828125 21.3359375 16.34828125 21.3359375 14.98828125 C20.0159375 14.98828125 18.6959375 14.98828125 17.3359375 14.98828125 Z M-47.6640625 18.98828125 C-47.6640625 20.63828125 -47.6640625 22.28828125 -47.6640625 23.98828125 C-46.3440625 23.98828125 -45.0240625 23.98828125 -43.6640625 23.98828125 C-43.6640625 22.33828125 -43.6640625 20.68828125 -43.6640625 18.98828125 C-44.9840625 18.98828125 -46.3040625 18.98828125 -47.6640625 18.98828125 Z M27.3359375 18.98828125 C27.3359375 20.63828125 27.3359375 22.28828125 27.3359375 23.98828125 C28.6559375 23.98828125 29.9759375 23.98828125 31.3359375 23.98828125 C31.3359375 22.33828125 31.3359375 20.68828125 31.3359375 18.98828125 C30.0159375 18.98828125 28.6959375 18.98828125 27.3359375 18.98828125 Z M-37.6640625 23.98828125 C-37.6640625 25.30828125 -37.6640625 26.62828125 -37.6640625 27.98828125 C-36.3440625 27.98828125 -35.0240625 27.98828125 -33.6640625 27.98828125 C-33.6640625 26.66828125 -33.6640625 25.34828125 -33.6640625 23.98828125 C-34.9840625 23.98828125 -36.3040625 23.98828125 -37.6640625 23.98828125 Z M17.3359375 23.98828125 C17.3359375 25.30828125 17.3359375 26.62828125 17.3359375 27.98828125 C18.6559375 27.98828125 19.9759375 27.98828125 21.3359375 27.98828125 C21.3359375 26.66828125 21.3359375 25.34828125 21.3359375 23.98828125 C20.0159375 23.98828125 18.6959375 23.98828125 17.3359375 23.98828125 Z M-19.6640625 41.98828125 C-19.54902981 44.50991885 -19.42231473 47.03009315 -19.2890625 49.55078125 C-19.258125 50.25525391 -19.2271875 50.95972656 -19.1953125 51.68554688 C-18.94216418 59.38977322 -18.94216418 59.38977322 -15.6640625 65.98828125 C-13.17347336 66.08825767 -10.71678855 66.12707752 -8.2265625 66.11328125 C-7.18532227 66.11908203 -7.18532227 66.11908203 -6.12304688 66.125 C-2.26636493 66.1818796 -2.26636493 66.1818796 1.3359375 64.98828125 C3.17985984 57.44185834 3.65039627 49.72746089 3.3359375 41.98828125 C2.5728125 42.15328125 1.8096875 42.31828125 1.0234375 42.48828125 C-5.96839164 43.43632588 -12.72934903 43.27324286 -19.6640625 41.98828125 Z " fill="#7E6FE9" transform="translate(334.6640625,48.01171875)"/>
<path d="M0 0 C4.62 0 9.24 0 14 0 C14.84304687 1.55332031 15.68609375 3.10664063 16.5546875 4.70703125 C17.66138424 6.74222779 18.76815913 8.77738184 19.875 10.8125 C20.43058594 11.83666016 20.98617187 12.86082031 21.55859375 13.91601562 C22.36103516 15.39038086 22.36103516 15.39038086 23.1796875 16.89453125 C23.91807861 18.25348511 23.91807861 18.25348511 24.67138672 19.63989258 C25.70311696 21.47262618 26.83336384 23.25004576 28 25 C30.65168897 20.93666033 33.11750374 16.87759636 35.21875 12.5 C35.59515625 11.75878906 35.9715625 11.01757812 36.359375 10.25390625 C37.12624485 8.73855043 37.85519455 7.20346296 38.546875 5.65234375 C39.71875 3.4375 39.71875 3.4375 43 0 C47.29 0 51.58 0 56 0 C56 16.5 56 33 56 50 C51.71 50 47.42 50 43 50 C42.67 42.74 42.34 35.48 42 28 C41.13375 29.815 40.2675 31.63 39.375 33.5 C37.0406063 37.16356889 35.80807202 38.72086505 31.6640625 40.15234375 C27.60843021 40.46797398 24.84384778 40.36380079 21 39 C17.54525024 35.1888078 16.1019439 31.8044432 14 27 C13.67 34.59 13.34 42.18 13 50 C8.71 50 4.42 50 0 50 C0 33.5 0 17 0 0 Z " fill="#797972" transform="translate(178,14)"/>
<path d="M0 0 C5.34470601 3.91807268 8.6338171 8.93563423 10.01953125 15.48046875 C10.8454422 23.43741575 10.68941784 30.74530837 6.01953125 37.48046875 C0.72814887 43.59601679 -5.20289992 46.75827265 -13.19921875 47.7578125 C-20.60246488 48.0836596 -27.96274593 46.41397147 -33.85546875 41.79296875 C-39.69950867 36.25215732 -41.70804898 29.56676524 -42.23046875 21.73046875 C-42.12363542 14.65276069 -39.52241048 7.88169675 -34.98046875 2.48046875 C-24.94493756 -5.15481168 -11.05127753 -6.54279615 0 0 Z M-25.98046875 12.48046875 C-28.99059686 16.99566091 -29.24355092 20.78505029 -28.41796875 26.10546875 C-26.62219065 30.32164342 -24.82612874 32.01344159 -20.98046875 34.48046875 C-16.68327696 35.73056091 -14.50977585 35.64808267 -10.23046875 34.29296875 C-5.95068156 31.90616436 -4.50897381 30.06598393 -2.98046875 25.48046875 C-2.61642977 19.92887436 -2.68615582 16.20231728 -5.98046875 11.48046875 C-9.88054765 8.75948347 -13.35260563 7.94228434 -18.01953125 8.12109375 C-21.31151357 8.72440525 -23.45244195 10.37377975 -25.98046875 12.48046875 Z " fill="#797972" transform="translate(91.98046875,17.51953125)"/>
<path d="M0 0 C5.15947473 3.67761302 9.5300591 9.03976054 10.86328125 15.328125 C11.66880925 24.70357586 11.13946076 31.90982812 6.23828125 40.015625 C0.47336418 45.62883373 -6.31470956 48.39779834 -14.32421875 48.578125 C-22.0506621 48.44956521 -29.02173117 46.48004701 -34.66796875 41.046875 C-39.90264598 34.92118888 -41.23862584 28.27687835 -41.13671875 20.328125 C-40.25983771 11.72120032 -36.51646902 6.26951623 -30.11328125 0.625 C-21.82730095 -4.81165111 -8.61444581 -4.60734955 0 0 Z M-25.13671875 13.328125 C-28.06039573 17.98584488 -27.85942931 23.01543356 -27.13671875 28.328125 C-25.71653798 31.82342427 -23.55414139 33.71346696 -20.046875 35.234375 C-15.96260147 36.40729458 -13.48666383 36.41991387 -9.32421875 35.328125 C-5.56114125 32.96697833 -4.0057437 31.3652189 -2.13671875 27.328125 C-1.3034044 22.6117376 -1.6494401 18.65210814 -3.88671875 14.390625 C-6.42260999 10.93899525 -8.07272895 9.65085795 -12.28515625 8.9921875 C-17.72972285 8.89666879 -20.88550302 9.59535021 -25.13671875 13.328125 Z " fill="#797972" transform="translate(154.13671875,16.671875)"/>
<path d="M0 0 C4.805625 -0.0825 9.61125 -0.165 14.5625 -0.25 C16.06498291 -0.28641602 17.56746582 -0.32283203 19.11547852 -0.36035156 C31.43559827 -0.46286078 31.43559827 -0.46286078 37 4 C41.02849108 8.55855569 42.25084358 13.02156139 42 19 C40.74276195 23.36335559 39.08437952 26.09724374 35.87890625 29.20703125 C35.06981812 29.99750854 35.06981812 29.99750854 34.24438477 30.80395508 C33.83373779 31.1986499 33.42309082 31.59334473 33 32 C33.36351562 32.47421387 33.72703125 32.94842773 34.1015625 33.43701172 C35.73934936 35.57925793 37.36973945 37.72702158 39 39.875 C39.57234375 40.62136719 40.1446875 41.36773437 40.734375 42.13671875 C41.27578125 42.85214844 41.8171875 43.56757812 42.375 44.3046875 C42.87773437 44.96452637 43.38046875 45.62436523 43.8984375 46.30419922 C45 48 45 48 45 50 C39.60508176 51.19809223 34.2621285 52.11407309 29 50 C23.59518562 45.27749198 19.83767114 38.94836872 16.14477539 32.85766602 C15.13350354 31.05649874 15.13350354 31.05649874 14 30 C13.67 36.6 13.34 43.2 13 50 C8.71 50 4.42 50 0 50 C0 33.5 0 17 0 0 Z M13 12 C13 15.63 13 19.26 13 23 C15.10388569 23.05402274 17.20816714 23.09280256 19.3125 23.125 C20.48425781 23.14820313 21.65601563 23.17140625 22.86328125 23.1953125 C26.16393661 23.25320618 26.16393661 23.25320618 29 21 C30.0146239 19.1935345 30.0146239 19.1935345 30 17 C29.06480556 14.26827344 29.06480556 14.26827344 27 12 C23.57639262 11.39375602 23.57639262 11.39375602 19.8125 11.6875 C18.54019531 11.73261719 17.26789063 11.77773437 15.95703125 11.82421875 C14.98121094 11.88222656 14.00539062 11.94023438 13 12 Z " fill="#797973" transform="translate(189,76)"/>
<path d="M0 0 C6.991875 -0.0928125 6.991875 -0.0928125 14.125 -0.1875 C15.58437988 -0.21481201 17.04375977 -0.24212402 18.54736328 -0.27026367 C19.70993652 -0.27775635 20.87250977 -0.28524902 22.0703125 -0.29296875 C23.25383301 -0.3086792 24.43735352 -0.32438965 25.65673828 -0.34057617 C30.03034994 0.10496116 33.38376774 1.5258119 36.64453125 4.5 C40.11622614 8.95863157 41.36537647 12.09850944 41.28125 17.80859375 C40.61419399 23.00607181 38.31523564 26.88875216 34.35546875 30.234375 C33.57816406 30.81703125 32.80085938 31.3996875 32 32 C32.39380859 32.50974365 32.78761719 33.0194873 33.19335938 33.54467773 C34.96472593 35.84037928 36.73240594 38.13889275 38.5 40.4375 C39.12003906 41.23994141 39.74007812 42.04238281 40.37890625 42.86914062 C41.25869141 44.01479492 41.25869141 44.01479492 42.15625 45.18359375 C42.70087891 45.89056396 43.24550781 46.59753418 43.80664062 47.32592773 C45 49 45 49 45 50 C31.20681769 51.67549086 31.20681769 51.67549086 26.14453125 47.83203125 C23.86670354 44.98964727 21.91250218 42.09817232 20 39 C18.82757343 37.42615807 17.64199769 35.86193467 16.4375 34.3125 C15.633125 33.219375 14.82875 32.12625 14 31 C13.67 37.27 13.34 43.54 13 50 C8.71 50 4.42 50 0 50 C0 33.5 0 17 0 0 Z M13 12 C13 15.63 13 19.26 13 23 C14.91541138 23.10841951 16.83259773 23.18578079 18.75 23.25 C20.35101563 23.31960937 20.35101563 23.31960937 21.984375 23.390625 C25.09964335 23.24482545 25.09964335 23.24482545 27.3984375 21.1484375 C29.28301815 19.09494969 29.28301815 19.09494969 28.875 16.375 C28.13532087 13.85594875 28.13532087 13.85594875 26 12 C22.87185486 11.75639927 22.87185486 11.75639927 19.375 11.875 C17.59222656 11.90207031 17.59222656 11.90207031 15.7734375 11.9296875 C14.40058594 11.96449219 14.40058594 11.96449219 13 12 Z " fill="#797972" transform="translate(0,76)"/>
<path d="M0 0 C28.80445545 0 28.80445545 0 35.20703125 4.578125 C41.30110192 10.92426185 43.15529638 15.5181384 43.5 24.3125 C43.31220093 32.23136067 41.81618486 38.17583149 36.1328125 43.87109375 C25.3880995 52.588108 14.04002501 50 0 50 C0 33.5 0 17 0 0 Z M13 12 C13 20.58 13 29.16 13 38 C19.71226153 38 22.77253751 37.67100344 27.8125 33.5 C30.45971645 30.15614765 30.33152201 26.35600197 30.28515625 22.2890625 C29.84223476 18.73355576 28.32825076 16.65161892 26 14 C21.40371521 11.32917961 21.40371521 11.32917961 13 12 Z " fill="#797972" transform="translate(83,76)"/>
<path d="M0 0 C12.54 0 25.08 0 38 0 C38 3.96 38 7.92 38 12 C29.75 12 21.5 12 13 12 C13 14.31 13 16.62 13 19 C19.6 19 26.2 19 33 19 C33 22.96 33 26.92 33 31 C26.4 31 19.8 31 13 31 C13 33.31 13 35.62 13 38 C21.25 38 29.5 38 38 38 C38 41.96 38 45.92 38 50 C25.46 50 12.92 50 0 50 C0 33.5 0 17 0 0 Z " fill="#7A7A73" transform="translate(139,76)"/>
<path d="M0 0 C12.87 0 25.74 0 39 0 C39 13 39 13 34.9375 17.8125 C33.29917843 19.21714248 31.65351065 20.61326982 30 22 C28.74087381 23.34761899 27.50922101 24.7216702 26.3125 26.125 C25.56419922 26.99511719 25.56419922 26.99511719 24.80078125 27.8828125 C24.20652344 28.58148438 23.61226562 29.28015625 23 30 C21.02 32.31 19.04 34.62 17 37 C24.92 37.33 32.84 37.66 41 38 C41 41.96 41 45.92 41 50 C27.14 50 13.28 50 -1 50 C-1 37 -1 37 2.5625 32.6875 C4.03527404 31.45068096 5.51442543 30.22141431 7 29 C8.21661062 27.6931746 9.40529802 26.35971233 10.5625 25 C11.40167969 24.02546875 11.40167969 24.02546875 12.2578125 23.03125 C12.83273437 22.3609375 13.40765625 21.690625 14 21 C15.31104343 19.49872674 16.62350626 17.99869166 17.9375 16.5 C18.948125 15.345 19.95875 14.19 21 13 C14.07 12.67 7.14 12.34 0 12 C0 8.04 0 4.08 0 0 Z " fill="#797972" transform="translate(1,14)"/>
<path d="M0 0 C4.29 0 8.58 0 13 0 C13 16.5 13 33 13 50 C8.71 50 4.42 50 0 50 C0 33.5 0 17 0 0 Z " fill="#797972" transform="translate(55,76)"/>
<path d="M0 0 C3.12177233 1.68287927 5.39137035 3.7827407 7 7 C8.03037808 16.00844834 8.03037808 16.00844834 5.953125 20.0234375 C3.57228399 22.89445166 1.57891407 24.82677382 -2.171875 25.23828125 C-7.97794679 25.40542574 -11.48854613 25.06030848 -16 21 C-18.55722964 16.7849801 -18.68347211 12.80930984 -18 8 C-13.99990071 0.1426621 -8.3981325 -1.33576596 0 0 Z " fill="#9859E5" transform="translate(332,57)"/>
<path d="M0 0 C4.95 0 9.9 0 15 0 C14.125 12.75 14.125 12.75 13 15 C9.37 15 5.74 15 2 15 C0 4.5 0 4.5 0 0 Z " fill="#6287EE" transform="translate(319,95)"/>
<path d="M0 0 C0 8.25 0 16.5 0 25 C-7.2972973 21.35135135 -7.2972973 21.35135135 -9 17 C-9.71763357 12.20691651 -9.46684169 8.91701047 -7.25 4.5625 C-3.24390244 0 -3.24390244 0 0 0 Z " fill="#41A4F4" transform="translate(323,57)"/>
<path d="M0 0 C6.10804851 3.66482911 6.10804851 3.66482911 8 7 C8.79068903 11.36196782 9.01779368 15.98781019 6.98046875 20.015625 C4.86656972 22.64682258 3.21013603 23.92995466 0 25 C0 16.75 0 8.5 0 0 Z " fill="#C333E0" transform="translate(331,57)"/>
<path d="M0 0 C1.32 0 2.64 0 4 0 C4 8.25 4 16.5 4 25 C2.68 25 1.36 25 0 25 C0 16.75 0 8.5 0 0 Z " fill="#6F7CEC" transform="translate(323,57)"/>
<path d="M0 0 C-0.14069196 2.12534659 -0.28770921 4.25027529 -0.4375 6.375 C-0.51871094 7.55835937 -0.59992188 8.74171875 -0.68359375 9.9609375 C-1 13 -1 13 -2 15 C-3.65 15 -5.3 15 -7 15 C-7 10.38 -7 5.76 -7 1 C-2 0 -2 0 0 0 Z " fill="#DD1CD9" transform="translate(334,95)"/>
<path d="M0 0 C4 4 4 4 4.53125 6.65625 C4.5209375 7.5946875 4.510625 8.533125 4.5 9.5 C4.5103125 10.4384375 4.520625 11.376875 4.53125 12.34375 C4 15 4 15 0 19 C0 12.73 0 6.46 0 0 Z " fill="#E812D8" transform="translate(335,60)"/>
<path d="M0 0 C0.33 0 0.66 0 1 0 C1 6.27 1 12.54 1 19 C-2.43810991 15.56189009 -3.15608401 14.34416777 -3.25 9.6875 C-3.21766736 5.67825303 -2.58030079 3.19957298 0 0 Z " fill="#15CAFB" transform="translate(317,60)"/>
<path d="M0 0 C1.32 0.33 2.64 0.66 4 1 C4 5.62 4 10.24 4 15 C3.34 15 2.68 15 2 15 C1.66223316 13.2508503 1.32996329 11.50063855 1 9.75 C0.814375 8.77546875 0.62875 7.8009375 0.4375 6.796875 C0 4 0 4 0 0 Z " fill="#1EC2F9" transform="translate(319,95)"/>
<path d="M0 0 C0.99 0 1.98 0 3 0 C3 4.62 3 9.24 3 14 C2.01 14 1.02 14 0 14 C0 9.38 0 4.76 0 0 Z " fill="#A250E3" transform="translate(327,96)"/>
</svg>
