<?xml version="1.0" encoding="UTF-8"?>
<svg version="1.1" xmlns="http://www.w3.org/2000/svg" width="512" height="512">
<path d="M0 0 C42.64451273 42.10067913 61.86740563 108.20636455 62.3125 166.625 C62.15469316 229.07705584 39.97758946 285.74921228 1 334 C-4.55439924 329.37508621 -9.68525669 324.44639036 -14.77734375 319.3203125 C-15.99436729 318.10116653 -15.99436729 318.10116653 -17.23597717 316.85739136 C-19.8055259 314.28228262 -22.37155968 311.7037038 -24.9375 309.125 C-26.68791929 307.36956054 -28.438568 305.61434983 -30.18945312 303.859375 C-34.46229302 299.57555918 -38.73225899 295.28889528 -43 291 C-41.29592371 288.1168655 -39.56545989 285.29831959 -37.6171875 282.57421875 C-18.24178155 255.17003591 -5.04097012 224.5313702 -1 191 C-0.9071875 190.25290771 -0.814375 189.50581543 -0.71875 188.73608398 C3.01899302 155.66039554 -1.85860533 121.5821345 -15 91 C-15.31807617 90.25830566 -15.63615234 89.51661133 -15.96386719 88.75244141 C-23.03918828 72.52892501 -32.36751088 58.1055658 -43 44 C-38.37508621 38.44560076 -33.44639036 33.31474331 -28.3203125 28.22265625 C-27.50754852 27.41130722 -26.69478455 26.59995819 -25.85739136 25.76402283 C-23.28228262 23.1944741 -20.7037038 20.62844032 -18.125 18.0625 C-16.36956054 16.31208071 -14.61434983 14.561432 -12.859375 12.81054688 C-8.57555918 8.53770698 -4.28889528 4.26774101 0 0 Z " fill="#5D67EC" transform="translate(450,89)"/>
<path d="M0 0 C5.55439924 4.62491379 10.68525669 9.55360964 15.77734375 14.6796875 C16.58869278 15.49245148 17.40004181 16.30521545 18.23597717 17.14260864 C20.8055259 19.71771738 23.37155968 22.2962962 25.9375 24.875 C27.68791929 26.63043946 29.438568 28.38565017 31.18945312 30.140625 C35.46229302 34.42444082 39.73225899 38.71110472 44 43 C41.5585514 47.34200974 39.15872129 51.19186993 36 55.0625 C6.91762725 93.43973323 -3.84624599 145.61298103 2.125 192.8125 C4.53873469 210.02706957 9.16933851 227.01179293 16 243 C16.42853271 244.00740234 16.42853271 244.00740234 16.86572266 245.03515625 C23.87426344 261.24075029 33.02629565 276.18126118 44 290 C39.37508621 295.55439924 34.44639036 300.68525669 29.3203125 305.77734375 C28.50754852 306.58869278 27.69478455 307.40004181 26.85739136 308.23597717 C24.28228262 310.8055259 21.7037038 313.37155968 19.125 315.9375 C17.36956054 317.68791929 15.61434983 319.438568 13.859375 321.18945312 C9.57555918 325.46229302 5.28889528 329.73225899 1 334 C-40.52670413 292.96366715 -60.5083635 228.00077803 -61.23242188 170.91601562 C-61.50114877 111.04963519 -42.94186234 51.03572727 -3.70703125 5.03125 C-1.8586824 2.90790051 -1.8586824 2.90790051 0 0 Z " fill="#5D67EC" transform="translate(61,89)"/>
<path d="M0 0 C4.27558282 3.78340238 8.31643058 7.78890197 12.2578125 11.91796875 C10.65408102 15.92314271 7.83667264 18.59507855 4.8125 21.55859375 C4.28262482 22.08563904 3.75274963 22.61268433 3.20681763 23.15570068 C1.52013425 24.8312255 -0.17338314 26.49964597 -1.8671875 28.16796875 C-3.01478138 29.30552726 -4.16192211 30.44354311 -5.30859375 31.58203125 C-8.11456887 34.3660034 -10.92669214 37.14362635 -13.7421875 39.91796875 C-16.49760468 38.65326009 -18.56957786 37.34380561 -20.73828125 35.23046875 C-21.56525513 34.43757446 -21.56525513 34.43757446 -22.40893555 33.62866211 C-23.28545776 32.7818689 -23.28545776 32.7818689 -24.1796875 31.91796875 C-50.35087494 7.23683462 -82.87261588 -9.57029663 -117.7421875 -18.08203125 C-118.93070313 -18.37851562 -120.11921875 -18.675 -121.34375 -18.98046875 C-171.21412222 -30.55956667 -226.37832399 -20.92395213 -270.13818359 5.35693359 C-286.06259822 15.31256866 -300.19205878 26.96503416 -313.7421875 39.91796875 C-317.74736146 38.31423727 -320.4192973 35.49682889 -323.3828125 32.47265625 C-323.90985779 31.94278107 -324.43690308 31.41290588 -324.97991943 30.86697388 C-326.65544425 29.1802905 -328.32386472 27.48677311 -329.9921875 25.79296875 C-331.12974601 24.64537487 -332.26776186 23.49823414 -333.40625 22.3515625 C-336.19022215 19.54558738 -338.9678451 16.73346411 -341.7421875 13.91796875 C-337.16316753 4.11245617 -326.09054951 -3.58407938 -317.7421875 -10.08203125 C-316.92234375 -10.74041992 -316.92234375 -10.74041992 -316.0859375 -11.41210938 C-237.78142752 -74.2479829 -125.78005889 -79.00286801 0 0 Z " fill="#2896DC" transform="translate(420.7421875,74.08203125)"/>
<path d="M0 0 C4.14096678 1.9037778 7.01567875 4.7307738 10.25 7.875 C40.39148484 36.40374857 78.43937699 53.60450498 119 61 C119.72010254 61.13277344 120.44020508 61.26554687 121.18212891 61.40234375 C164.66876538 68.98561222 211.63992103 59.10104501 250 38 C250.62036133 37.65888184 251.24072266 37.31776367 251.87988281 36.96630859 C269.46898876 27.14732511 285.91275347 14.40087725 300 0 C304.00517396 1.60373148 306.6771098 4.42113986 309.640625 7.4453125 C310.16767029 7.97518768 310.69471558 8.50506287 311.23773193 9.05099487 C312.91325675 10.73767825 314.58167722 12.43119564 316.25 14.125 C317.38755851 15.27259388 318.52557436 16.41973461 319.6640625 17.56640625 C322.44803465 20.37238137 325.2256576 23.18450464 328 26 C318.73813231 45.8333619 289.41335913 61.64695417 271 72 C270.36336426 72.36544922 269.72672852 72.73089844 269.07080078 73.10742188 C213.89518827 104.6207388 146.77705004 110.59896327 85.84765625 94.69140625 C42.85392569 82.80025455 5.2608421 59.54763881 -26 28 C-24.39626852 23.99482604 -21.57886014 21.3228902 -18.5546875 18.359375 C-17.75987473 17.56880707 -17.75987473 17.56880707 -16.94900513 16.76226807 C-15.26232175 15.08674325 -13.56880436 13.41832278 -11.875 11.75 C-10.72740612 10.61244149 -9.58026539 9.47442564 -8.43359375 8.3359375 C-5.62761863 5.55196535 -2.81549536 2.7743424 0 0 Z " fill="#8D3DFA" transform="translate(105,398)"/>
<path d="M0 0 C15.87506563 11.95656636 26.00941347 28.30498468 29 48 C30.84561612 64.36499098 26.74648209 82.38705252 16.75146484 95.65771484 C5.1427635 109.89335775 -9.25060572 118.87993583 -27.25 122.6875 C-47.75932861 124.39661072 -65.98664038 120.28819451 -82 107 C-94.86594544 95.99293304 -102.82825935 80.7875552 -105 64 C-106.24073206 45.65343736 -102.36715498 27.37054278 -90.03955078 13.11279297 C-66.3587095 -12.84049356 -30.03704162 -19.09522857 0 0 Z " fill="#5D67EC" transform="translate(294,200)"/>
<path d="M0 0 C3.98921252 1.27678336 7.79581231 2.74442941 11.625 4.4375 C29.07473426 11.77678029 49.46990537 13.90865357 67.47949219 7.05664062 C70.76263982 5.65559278 73.99679249 4.18246185 77.19921875 2.60546875 C82.72373561 -0.09208813 82.72373561 -0.09208813 86 1 C85.7733667 1.74459473 85.5467334 2.48918945 85.31323242 3.25634766 C79.34545517 22.42412324 79.34545517 22.42412324 75 42 C74.87109375 42.70898438 74.7421875 43.41796875 74.609375 44.1484375 C71.93184599 61.41145351 75.26719013 78.45156271 85.28515625 92.84667969 C90.45364162 99.87420004 96.13099479 106.55010349 102 113 C101 115 101 115 98.84545898 115.74609375 C95.71141678 116.50657764 92.57754603 117.26459212 89.4375 118 C88.38369141 118.26039063 87.32988281 118.52078125 86.24414062 118.7890625 C71.96537386 122.18917774 57.94134817 123.38829176 43.3125 123.3125 C42.57465271 123.31067719 41.83680542 123.30885437 41.07659912 123.30697632 C21.61810052 123.22647395 3.73955704 120.09248972 -15 115 C-15 111.4155476 -14.5013094 111.13271821 -12.125 108.625 C2.2442825 92.68498622 12.94926447 75.86152146 12.27734375 53.5 C11.00815676 37.48321765 6.51055917 22.35527691 2 7 C1.32866307 4.66796137 0.66362611 2.33424705 0 0 Z " fill="#7E4BF5" transform="translate(213,325)"/>
<path d="M0 0 C-1.31121549 3.38028946 -2.78274669 6.6195012 -4.375 9.875 C-11.15569828 24.70025453 -12.77505997 39.75539927 -11.4921875 55.83203125 C-11.40050293 56.99065674 -11.30881836 58.14928223 -11.21435547 59.34301758 C-11.10824951 60.65822388 -11.10824951 60.65822388 -11 62 C-11.75818024 62.00586624 -12.51636047 62.01173248 -13.29751587 62.01777649 C-20.50427633 62.07610368 -27.71070668 62.14840196 -34.91716957 62.23571491 C-38.62053809 62.28011011 -42.32380436 62.31943025 -46.02734375 62.34643555 C-49.61319723 62.37278143 -53.19865042 62.41339335 -56.78425217 62.46318626 C-58.79224226 62.48756116 -60.80038822 62.49781789 -62.8085022 62.50764465 C-78.44697792 62.75327091 -93.40176856 66.01198878 -106.37890625 75.08203125 C-108 76 -108 76 -111 76 C-112.6418098 65.8421739 -113.29321195 56.00587571 -113.20581055 45.7265625 C-113.18728491 43.47384529 -113.1853037 41.22153637 -113.18554688 38.96875 C-113.16393903 32.54888738 -113.02613061 26.34205014 -112 20 C-111.21238281 20.15597656 -110.42476563 20.31195313 -109.61328125 20.47265625 C-108.52402344 20.66730469 -107.43476562 20.86195313 -106.3125 21.0625 C-105.25675781 21.25972656 -104.20101562 21.45695312 -103.11328125 21.66015625 C-91.64057439 23.0002625 -80.37653884 19.90553739 -69.3671875 17.0703125 C-67.79808885 16.67446283 -66.22875795 16.27953279 -64.65921021 15.88546753 C-60.56104847 14.85382108 -56.46627143 13.80932203 -52.37207031 12.76208496 C-48.22541445 11.70413634 -44.07539459 10.65955617 -39.92578125 9.61328125 C-33.8328458 8.07426288 -27.74066277 6.53233068 -21.65185547 4.97705078 C-20.65075902 4.72157565 -20.65075902 4.72157565 -19.6294384 4.46093941 C-14.77348166 3.21497745 -9.94251698 1.8914274 -5.12380981 0.50875854 C-3 0 -3 0 0 0 Z " fill="#5C69EB" transform="translate(188,212)"/>
<path d="M0 0 C8.69799286 1.37581877 17.1735287 3.48431982 25.6859417 5.69961739 C28.11272863 6.33047902 30.54098934 6.95534888 32.96974182 7.57859802 C39.86726303 9.34925897 46.76290475 11.12707131 53.65551758 12.91674805 C57.89360163 14.01672466 62.13407622 15.10704443 66.37614632 16.19154167 C67.97762618 16.60294133 69.57819767 17.01789608 71.17776299 17.43667793 C82.67532521 20.44547107 93.85174166 23.08520392 105.75 21.0625 C106.94109375 20.86785156 108.1321875 20.67320312 109.359375 20.47265625 C110.66648437 20.23869141 110.66648437 20.23869141 112 20 C113.14550417 27.07984426 113.18607547 34.07181731 113.18530273 41.23046875 C113.18746742 43.46634605 113.20559924 45.70171111 113.22460938 47.9375 C113.26053736 57.46354876 112.52095453 66.58990169 111 76 C106.77874748 75.07300253 103.2353557 73.1229093 99.4375 71.125 C89.21267666 65.87557616 79.09916796 62.95721722 67.53564453 62.79467773 C66.27479034 62.77473251 65.01393616 62.75478729 63.71487427 62.73423767 C62.35418823 62.71725866 60.99350094 62.70037967 59.6328125 62.68359375 C58.22890649 62.66299884 56.82500632 62.64200174 55.42111206 62.62062073 C51.7419918 62.56566179 48.06281803 62.5161381 44.38360596 62.46777344 C40.62287687 62.41736615 36.86222464 62.36178087 33.1015625 62.30664062 C25.73444025 62.1993797 18.3672537 62.09786479 11 62 C11.10393066 60.6847937 11.10393066 60.6847937 11.20996094 59.34301758 C11.30051758 58.18439209 11.39107422 57.0257666 11.484375 55.83203125 C11.57428711 54.68710205 11.66419922 53.54217285 11.75683594 52.36254883 C13.06080409 34.3308688 9.34163195 17.56938659 0 2 C0 1.34 0 0.68 0 0 Z " fill="#5C69EB" transform="translate(324,212)"/>
</svg>
